<svg width="164" height="57" viewBox="0 0 164 57" fill="none" xmlns="http://www.w3.org/2000/svg">
<g clip-path="url(#clip0_125_9743)">
<path d="M34.841 55.7412C33.7302 52.4029 33.1863 43.7417 33.1863 29.2776C33.1863 25.7947 33.2268 21.8489 33.302 17.5559C33.3541 15.6929 33.4177 13.8878 33.493 12.1695C33.5682 10.4511 33.6434 8.91793 33.7244 7.61037C33.7996 6.29124 33.9269 4.8969 34.0889 3.46206C34.2104 2.40907 34.4881 1.28666 34.9104 0.106384H24.6409C26.0295 2.54793 26.7122 5.92675 26.7122 10.3586C26.7122 13.0026 26.0468 14.7209 24.6698 15.6119C24.0623 15.9938 22.9631 16.3698 19.2545 16.3698H15.6442C12.0166 16.3698 10.8248 15.9128 10.2057 15.5078C9.47094 15.0623 8.95023 14.3738 8.64937 13.477C8.39481 12.7075 8.26752 11.7124 8.26752 10.4338C8.26752 9.27085 8.30802 8.14265 8.38323 7.08388C8.54523 4.37619 9.19323 2.03879 10.3156 0.11217H0.0171865L0.0692574 0.24524C0.306469 0.858519 0.572609 1.93465 0.890819 3.54306C1.20903 5.15726 1.45203 9.73949 1.63717 17.5501C1.66031 19.4073 1.68924 21.305 1.71238 23.2432C1.73552 25.1756 1.75288 28.7453 1.75288 33.8367C1.75288 38.9281 1.61403 43.574 1.33053 47.5545C1.1801 49.4695 1.02968 51.0895 0.890819 52.3855C0.780892 53.4154 0.485824 54.5898 0.00561523 55.9379H10.4082C10.09 55.3998 9.82386 54.8791 9.60979 54.3758C8.52788 51.7202 8.00138 45.5353 8.00138 35.4683L8.04188 24.0648C8.04188 23.4341 8.08238 22.8266 8.16917 22.2654C8.45845 20.5934 9.77758 18.6262 14.4697 18.6262H20.4752C23.0961 18.6262 24.8955 19.2106 25.9658 20.414C26.6312 21.1546 26.9436 22.3117 26.9436 24.0648L26.9841 34.4731C26.9841 40.5191 26.8163 45.2229 26.4865 48.4628C26.3303 50.1638 26.1047 51.6797 25.8154 52.9525C25.6071 53.8666 25.1848 54.8502 24.5368 55.9379H34.9162C34.8931 55.8685 34.8699 55.8048 34.8468 55.7412H34.841Z" fill="#EC9BAD"/>
<path d="M65.4298 53.7798C65.7249 53.0161 65.9448 52.1309 66.0836 51.1705C66.2283 50.1812 66.2977 48.81 66.2977 47.0974C66.2977 46.8023 66.2861 46.5246 66.2688 46.2643C66.0431 46.7503 65.8117 47.2189 65.5861 47.676C64.8976 49.0472 64.0008 50.2448 62.9304 51.2457C61.8427 52.264 60.4889 53.0624 58.8978 53.6178C57.3357 54.1675 55.5885 54.4452 53.6908 54.4452C51.7931 54.4452 48.8713 54.3584 48.0208 54.1733C46.9447 53.9418 46.0421 53.2302 45.3421 52.0673C44.8966 51.3209 44.3816 49.6142 44.3816 43.0069V24.8863C44.3816 22.7167 44.804 21.2066 45.6776 20.2693C46.2041 19.7081 46.91 19.2974 47.7836 19.0544C48.5647 18.8345 49.5077 18.7246 50.6591 18.7246C51.8104 18.7246 53.0891 18.9039 54.5355 19.2511C55.1777 19.4073 55.8662 19.4825 56.5836 19.4825C58.3598 19.4825 59.7078 18.9965 60.7088 17.9956C60.9112 17.7931 61.189 17.4402 61.5187 16.8385H51.3765C48.449 16.8385 46.5223 16.2136 45.4983 14.9234L45.4867 14.9118L45.4751 14.9003C44.9776 14.2349 44.6594 13.396 44.5321 12.4009C44.4221 11.5446 44.3701 10.0924 44.3701 7.96327C44.3701 5.58537 44.7866 3.9596 45.6487 2.99919C46.2504 2.35698 47.0662 1.96355 48.0787 1.81313C48.9002 1.69163 50.526 1.62799 52.3716 1.62799C54.2173 1.62799 56.0108 1.9057 57.544 2.45533C60.3732 3.46204 62.5717 5.46966 64.0702 8.40877L64.7587 9.78575C64.7992 9.32869 64.8223 8.84269 64.8223 8.32198C64.8223 7.43099 64.7413 6.4995 64.5736 5.55644C64.0529 2.54212 63.1445 0.673355 61.9527 0.123718H35.8941C37.2074 2.03877 37.8439 4.92002 37.8439 8.92948V28.9131C37.8439 34.369 37.8554 40.5423 37.8844 47.2594C37.8844 50.239 37.219 52.7558 35.9057 54.7345C35.6337 55.1452 35.2808 55.5502 34.8353 55.9552H63.4743C64.1917 55.9552 64.8397 55.2262 65.4067 53.7972L65.4298 53.7798Z" fill="#EC9BAD"/>
<path d="M94.8327 0.112183H88.0808C88.0808 0.22211 88.0808 0.332037 88.0808 0.44775C88.0808 3.896 87.3229 7.5641 85.836 11.3537L84.3896 14.935C83.6548 16.7228 82.6597 18.5684 81.4331 20.4198L80.4437 21.9183L79.5007 20.3909C78.5403 18.8288 77.7187 17.2724 77.0707 15.7624L75.2425 11.3421C74.6118 9.81472 74.0911 8.12531 73.6977 6.32018C73.4894 5.38869 73.3216 4.46299 73.1885 3.56043C73.0555 2.63473 72.986 1.74374 72.986 0.904817C72.986 0.627105 72.9976 0.366751 73.015 0.117968H62.0338C64.0704 2.43801 66.2747 6.10033 68.7105 11.2033L69.9544 13.6911C70.4635 14.7094 71.4528 16.8327 72.8993 19.9975C74.8606 24.4003 75.8152 27.7329 75.8152 30.1976V34.531L75.7747 42.4747V47.9421C75.7747 51.3152 74.8837 53.9997 73.1191 55.9495H85.674C84.9797 55.2494 84.3201 54.3237 83.7184 53.1955C83.0126 51.8764 82.6712 49.8688 82.6712 47.0685V29.7058C82.6712 26.0087 83.9961 21.2819 86.727 15.2532L88.6652 11.0297C89.2842 9.73372 90.3661 7.66245 91.8878 4.84484C92.8829 2.99922 93.8664 1.41974 94.8269 0.117968L94.8327 0.112183Z" fill="#EC9BAD"/>
<path d="M118.965 47.9422C120.226 46.0676 121.504 43.8459 122.766 41.3408C124.021 38.8471 125.19 35.9138 126.231 32.6218C127.273 29.3182 128.158 25.5112 128.852 21.305C129.546 17.0989 129.94 13.425 130.015 10.3875C130.09 7.29799 130.142 4.97216 130.166 3.46211C130.183 2.33391 130.333 1.19992 130.611 0.0717163H120.914C121.776 1.72641 122.442 3.64146 122.899 5.78794C123.211 7.25171 123.437 8.88905 123.57 10.6537C123.697 12.3951 123.761 14.8772 123.761 18.0304C123.761 21.1835 123.419 24.6723 122.754 28.271C120.926 38.1008 117.559 45.9866 112.739 51.7086L111.223 53.5138L110.737 51.2111C110.535 50.2564 110.315 49.2497 110.078 48.2083C109.841 47.1611 109.181 44.1179 108.116 39.1711C107.607 36.7643 105.796 27.7098 102.718 12.2563C101.96 8.16005 101.596 5.10523 101.596 2.91247C101.596 2.01569 101.7 1.07842 101.903 0.112216H92.2406C94.0573 3.72246 97.3725 14.0209 102.394 47.5372C102.811 50.5168 103.013 52.7153 103.013 54.2775C103.013 54.8213 102.956 55.3767 102.84 55.9379H112.728L115.348 52.779C116.488 51.4425 117.703 49.8109 118.965 47.9306V47.9422Z" fill="#EC9BAD"/>
<path d="M141.824 26.1649C143.768 27.1253 145.596 28.5313 147.256 30.3537C150.959 34.4268 153.14 39.6686 153.742 45.9461C153.817 46.8255 153.898 47.5892 153.985 48.243C154.072 48.9199 154.153 49.5332 154.217 50.0828C154.28 50.6382 154.332 51.1705 154.373 51.6623C154.413 52.1772 154.431 52.912 154.431 53.9013C154.431 54.6361 154.344 55.5213 154.17 56.5685H164C162.403 53.2533 159.586 44.2856 155.605 16.85L154.656 9.92461C154.315 7.55249 154.153 5.86887 154.153 4.79274C154.153 3.24797 154.402 1.88834 154.888 0.737H145.492C144.682 1.66849 143.693 2.73305 142.559 3.90175C141.303 5.19773 139.943 6.77722 138.514 8.59391C137.097 10.4048 135.656 12.5629 134.233 14.9986C132.821 17.4228 131.519 20.2867 130.374 23.5209C129.223 26.7608 128.274 30.5157 127.556 34.6756C126.839 38.8355 126.469 43.3714 126.469 48.1562C126.469 51.9458 126.289 54.7345 125.913 56.6032H134.002C132.908 54.017 132.069 51.4135 131.491 48.8447C131.034 46.704 130.819 43.6202 130.819 39.3967C130.819 34.6583 131.554 30.0529 133.006 25.6963L133.209 25.0888L133.828 24.9384C134.557 24.7648 135.535 24.678 136.813 24.678C138.185 24.678 139.822 25.1582 141.824 26.1476V26.1649ZM133.492 24.111L134.603 21.5827C136.611 17.0236 139.203 12.829 142.292 9.11462L144.462 6.52843L146.001 4.69438L146.47 7.03757L147.8 13.6853C148.078 15.1375 148.842 19.1122 150.08 25.6269L150.942 30.157L148.055 26.5641C146.95 25.1872 145.55 24.1689 143.907 23.5382C143.102 23.2085 142.304 22.977 141.517 22.8382C140.713 22.6993 139.787 22.6299 138.769 22.6299C137.826 22.6299 136.918 22.7977 136.067 23.1217L133.492 24.111Z" fill="#EC9BAD"/>
</g>
<defs>
<clipPath id="clip0_125_9743">
<rect width="164" height="56.5431" fill="white" transform="translate(0 0.0716553)"/>
</clipPath>
</defs>
</svg>
